Coordinates
version=1
nRows=29
nColumns=24
inDegrees=yes

Units are S.I. units (second, meters, Newtons, ...)
Angles are in degrees.

endheader
time	pelvis_tilt	pelvis_list	pelvis_rotation	pelvis_tx	pelvis_ty	pelvis_tz	hip_flexion_r	hip_adduction_r	hip_rotation_r	knee_angle_r	ankle_angle_r	subtalar_angle_r	mtp_angle_r	hip_flexion_l	hip_adduction_l	hip_rotation_l	knee_angle_l	ankle_angle_l	subtalar_angle_l	mtp_angle_l	lumbar_extension	lumbar_bending	lumbar_rotation
      4.12500000	    -18.13077271	      3.15824533	     -7.24793816	     -1.36032719	     -0.03976234	     -0.37507619	      0.57785364	     -2.15719207	     -0.56612639	    -19.97066149	      5.79131327	      2.29213909	      4.69773227	     44.81113466	     -2.93069758	    -17.61808637	    -14.99109849	     -3.80038104	      6.23361896	     22.18717308	     21.10748217	     -2.17314756	     -1.74628810
      4.13000000	    -18.02338523	      3.35006420	     -7.18744895	     -1.35227154	     -0.04037115	     -0.37598355	      0.44324961	     -2.61464346	     -0.96030352	    -20.67695101	      4.80096158	      2.52563431	      6.57096402	     44.73118779	     -2.62981993	    -17.38556739	    -15.72022617	     -4.59324577	      5.44749337	     22.34715224	     21.21326511	     -2.37541366	     -1.77077906
      4.13500000	    -18.00418309	      3.61779531	     -7.28835899	     -1.34421268	     -0.04093625	     -0.37668081	      0.52228103	     -3.11998578	     -1.10305667	    -21.55482688	      3.77201288	      2.72006662	      7.51891667	     44.70456260	     -2.38094470	    -17.16993944	    -16.42390418	     -5.40814912	      4.54128628	     22.17805842	     21.44089009	     -2.57760657	     -1.52442491
      4.14000000	    -17.97296417	      3.89252672	     -7.33569442	     -1.33617406	     -0.04143076	     -0.37748684	      0.62713475	     -3.64990976	     -1.30473826	    -22.47250506	      2.65287179	      2.92278061	      8.66711141	     44.69270105	     -2.07358494	    -16.86209668	    -17.16421969	     -6.27094170	      3.48247621	     21.85907503	     21.64656692	     -2.80462026	     -1.36439012
      4.14500000	    -17.96060880	      4.21541531	     -7.31890495	     -1.32812812	     -0.04187827	     -0.37834140	      0.78746569	     -4.23389515	     -1.55010877	    -23.39939313	      1.39782461	      2.94488701	     10.49930149	     44.72594380	     -1.67816799	    -16.50281044	    -17.94313558	     -7.13872496	      2.38450466	     21.25511675	     21.87576243	     -3.10940577	     -1.30248485
      4.15000000	    -17.92315972	      4.55201750	     -7.39012863	     -1.32003829	     -0.04217018	     -0.37908599	      0.98631464	     -4.82868175	     -1.70219314	    -24.35481708	     -0.08912259	      2.75465232	     12.63636405	     44.70731821	     -1.31164154	    -16.06291963	    -18.73094767	     -7.77843053	      1.32540581	     20.31140016	     22.09643113	     -3.39298582	     -1.06941886
      4.15500000	    -17.93670542	      4.87321198	     -7.43322873	     -1.31206998	     -0.04250131	     -0.37998642	      1.34284032	     -5.42809478	     -1.91409636	    -25.51833452	     -1.50053743	      2.93169960	     13.51350440	     44.77266515	     -0.91340440	    -15.48784538	    -19.53861004	     -8.38306123	     -0.01712227	     19.58589465	     22.34722801	     -3.64763846	     -0.89091104
      4.16000000	    -17.90377366	      5.23939854	     -7.43950365	     -1.30409770	     -0.04269542	     -0.38083809	      1.66981594	     -6.06914638	     -2.12288260	    -26.59253403	     -3.20610934	      2.53618116	     16.21235755	     44.80843337	     -0.44358357	    -14.89613084	    -20.45307115	     -8.69871683	     -1.00441150	     17.83343559	     22.55112966	     -3.98345571	     -0.75461927
      4.16500000	    -17.90714901	      5.59467778	     -7.43389332	     -1.29617892	     -0.04290397	     -0.38178651	      2.11977905	     -6.70958644	     -2.33843088	    -27.82969574	     -4.89947417	      2.38597295	     17.71534527	     44.89288560	      0.03876101	    -14.34162405	    -21.36223919	     -8.97033275	     -2.23099143	     16.57306374	     22.78369504	     -4.29552437	     -0.67543433
      4.17000000	    -17.83898816	      5.94675766	     -7.50999674	     -1.28835503	     -0.04296302	     -0.38258496	      2.56295590	     -7.32541594	     -2.37401048	    -29.07216114	     -6.77342643	      1.88957153	     19.93104863	     44.87673442	      0.48702615	    -13.71632810	    -22.30203722	     -8.87163316	     -3.10974397	     14.74164662	     22.92958833	     -4.58525987	     -0.43721796
      4.17500000	    -17.74750568	      6.27067879	     -7.58693001	     -1.28064287	     -0.04296577	     -0.38340966	      3.04936189	     -7.90972961	     -2.37676515	    -30.39658780	     -8.71102797	      1.37606455	     21.80120323	     44.84543567	      0.91063764	    -13.25627834	    -23.26198470	     -8.66976548	     -3.98212352	     13.08744990	     23.02769804	     -4.84849593	     -0.26922253
      4.18000000	    -17.72619087	      6.64323281	     -7.60832240	     -1.27288204	     -0.04303533	     -0.38427069	      3.67080328	     -8.54137952	     -2.42470922	    -31.82525002	    -10.64620226	      0.87028401	     23.16674249	     44.84958272	      1.41531944	    -12.80050377	    -24.14555360	     -8.38710091	     -4.82495685	     11.68358069	     23.21679371	     -5.17154216	     -0.13564615
      4.18500000	    -17.63339652	      6.98323359	     -7.69966085	     -1.26533872	     -0.04297237	     -0.38502178	      4.29967545	     -9.11069976	     -2.30551982	    -33.30480373	    -12.64450829	      0.15804763	     24.65724720	     44.76150817	      1.84497797	    -12.47083441	    -25.02713997	     -7.92176010	     -5.43040431	     10.13799873	     23.29460935	     -5.45147322	      0.06099548
      4.19000000	    -17.51724578	      7.31189508	     -7.79877759	     -1.25787594	     -0.04284953	     -0.38571226	      4.96184821	     -9.64354970	     -2.12016686	    -34.84578913	    -14.64408272	     -0.65610064	     25.85184125	     44.60515241	      2.25246889	    -12.25805865	    -25.83272781	     -7.35801138	     -5.90494557	      8.86322693	     23.33574704	     -5.72543674	      0.25637782
      4.19500000	    -17.38749047	      7.63086463	     -7.92347966	     -1.25057908	     -0.04268279	     -0.38633410	      5.68879054	    -10.13760003	     -1.85799816	    -36.47663065	    -16.58105567	     -1.53361636	     26.62577916	     44.39438518	      2.62667524	    -12.14020468	    -26.55027023	     -6.76454827	     -6.30830495	      7.94212213	     23.33840719	     -5.98662240	      0.47896407
      4.20000000	    -17.20144915	      7.96408796	     -7.96705476	     -1.24322637	     -0.04239617	     -0.38692663	      6.35797120	    -10.63920799	     -1.67347458	    -38.13429879	    -18.47370418	     -2.45971554	     26.68248539	     44.04686611	      3.06548247	    -12.10717717	    -27.09373697	     -6.25509359	     -6.73525337	      7.77299911	     23.28811607	     -6.32493680	      0.55730894
      4.20500000	    -17.04995755	      8.29389518	     -8.06281205	     -1.23607474	     -0.04210070	     -0.38744571	      7.15217208	    -11.09650993	     -1.37772356	    -39.85665680	    -20.27091863	     -3.49154938	     26.79714435	     43.70213850	      3.44958220	    -12.18105337	    -27.57612012	     -5.68798288	     -7.02955705	      7.51305786	     23.25274317	     -6.63285881	      0.70590135
      4.21000000	    -16.99266717	      8.56213488	     -8.27870000	     -1.22916222	     -0.04183821	     -0.38782979	      8.14085601	    -11.40772398	     -0.84811807	    -41.60673733	    -22.00399785	     -4.58023971	     27.18778467	     43.45195057	      3.63652068	    -12.51356692	    -28.10024673	     -4.90655831	     -6.92489107	      6.81623436	     23.28878256	     -6.80521714	      0.96800722
      4.21500000	    -16.83427801	      8.91241145	     -8.27526009	     -1.22210594	     -0.04146669	     -0.38840233	      8.96384535	    -11.86740718	     -0.64724504	    -43.34426547	    -23.51099772	     -5.72418508	     27.16134199	     42.99905586	      4.10754003	    -12.61791530	    -28.38033685	     -4.30263672	     -7.01397719	      6.69238912	     23.22752233	     -7.18101988	      0.99339090
      4.22000000	    -16.73039958	      9.18087104	     -8.44539162	     -1.21533817	     -0.04102692	     -0.38869618	      9.94696182	    -12.12626725	     -0.14266244	    -45.09854530	    -24.93895980	     -6.90213716	     27.00737743	     42.58607721	      4.32626424	    -13.00763773	    -28.66076852	     -3.59364257	     -6.82339616	      6.47970622	     23.19675912	     -7.40398417	      1.17335851
      4.22500000	    -16.63435119	      9.46549007	     -8.55225180	     -1.20860733	     -0.04056568	     -0.38901661	     10.94291902	    -12.39091485	      0.28282276	    -46.84904593	    -26.11100379	     -8.07572170	     26.60432047	     42.13225276	      4.60964408	    -13.34997516	    -28.82961378	     -2.92656875	     -6.61663131	      6.39630079	     23.16877160	     -7.67351178	      1.27616056
      4.23000000	    -16.54771609	      9.73309302	     -8.66158575	     -1.20197020	     -0.04005300	     -0.38926308	     11.96890928	    -12.59666958	      0.72786696	    -48.58428592	    -27.02683030	     -9.20134715	     25.93618158	     41.64903312	      4.86628444	    -13.73644570	    -28.91789051	     -2.28375475	     -6.36229416	      6.45704410	     23.13990376	     -7.93138118	      1.35682671
      4.23500000	    -16.51949087	      9.98820848	     -8.71613406	     -1.19542065	     -0.03956189	     -0.38947989	     13.07045635	    -12.76180251	      1.11742335	    -50.34428152	    -27.60097575	    -10.09920011	     24.45613799	     41.20559021	      5.11268051	    -14.16157204	    -28.95458116	     -1.67708756	     -5.97064208	      6.69067380	     23.15909663	     -8.20042250	      1.36207585
      4.24000000	    -16.38168251	     10.21621604	     -8.78479660	     -1.18895151	     -0.03881567	     -0.38975465	     14.03045743	    -12.89592706	      1.50680741	    -51.94161160	    -28.00990933	    -11.12527847	     24.02730895	     40.59235771	      5.40041853	    -14.48440139	    -28.86950202	     -1.21097944	     -5.83136107	      6.86192911	     23.04371129	     -8.45265696	      1.34787835
      4.24500000	    -16.38435541	     10.40515029	     -8.83508830	     -1.18251423	     -0.03821850	     -0.38988736	     15.14302583	    -12.91662265	      1.92112934	    -53.55972157	    -27.92027563	    -11.75446949	     22.70065185	     40.10536954	      5.59434042	    -14.85681693	    -28.76492382	     -0.64631195	     -5.42412124	      7.36296766	     23.08142788	     -8.65998198	      1.32166328
      4.25000000	    -16.27499944	     10.56155298	     -8.87420594	     -1.17617730	     -0.03736950	     -0.39010463	     16.10499518	    -12.92168751	      2.26937924	    -55.01656193	    -27.68165987	    -12.48035578	     22.33865872	     39.47107106	      5.83108665	    -15.15450725	    -28.59241687	     -0.21700604	     -5.20634320	      7.59460946	     22.97379716	     -8.85766408	      1.24463822
      4.25500000	    -16.22457162	     10.68621158	     -8.86673439	     -1.16977562	     -0.03648306	     -0.39031596	     17.07883287	    -12.86437150	      2.60094295	    -56.35766275	    -27.13402765	    -12.95177738	     22.17458823	     38.85152312	      6.05904790	    -15.39488208	    -28.35394144	      0.23162442	     -4.87407176	      7.84712160	     22.93885609	     -9.03677069	      1.04773954
      4.26000000	    -16.16792524	     10.72657845	     -8.78845460	     -1.16343739	     -0.03554793	     -0.39063696	     17.98964307	    -12.74793216	      2.78370815	    -57.59384877	    -26.30399307	    -13.25075196	     22.19714467	     38.21620304	      6.26901224	    -15.51764714	    -28.11835297	      0.67193110	     -4.57103096	      8.05680409	     22.86489020	     -9.16122963	      0.78918567
      4.26500000	    -16.14215277	     10.73935787	     -8.75702257	     -1.15718513	     -0.03453235	     -0.39085091	     18.93569233	    -12.54242884	      3.04821609	    -58.73452343	    -25.26426931	    -13.32706132	     22.32667236	     37.58568289	      6.41662821	    -15.65586117	    -27.83136004	      1.06474460	     -4.24819243	      8.28372619	     22.82106156	     -9.23821705	      0.53788435
